#!OML:ASF H:\charlestonDancing\Project 1\Capture day 1\Session 1\femaleDancer.ASF
:FULLY-SPECIFIED
:DEGREES
980
root -12.5963 8.08411 0.00882659 -170.306 -94.2473 174.579
lowerback 63.0643 -1.92337 3.41426
upperback 6.8154 -2.40788 -1.729
thorax -14.1665 -1.8406 -2.06492
lowerneck 5.55092 -2.82621 -1.93271
upperneck -33.0086 -4.68392 3.80615
head -11.4902 -3.00625 2.40644
rclavicle 2.46493e-014 -1.98785e-015
rhumerus -197.954 160.423 -258.332
rradius 34.945
rwrist 30.2388
rhand -29.2074 -34.648
rfingers 7.12502
rthumb 177.448 115.388
lclavicle 2.46493e-014 -1.98785e-015
lhumerus -28.2011 -11.3082 76.7255
lradius 45.7999
lwrist -11.8101
lhand -25.2575 6.54768
lfingers 7.12502
lthumb 1.26284 36.5237
rfemur -93.4797 -46.1461 26.3887
rtibia 143.288
rfoot -58.6418 6.69133
rtoes -14.7995
lfemur -88.6172 22.8067 -22.8409
ltibia 142.757
lfoot -45.8003 -28.3618
ltoes -13.8768
981
root -12.6097 8.02886 0.00171231 -173.868 -94.1199 177.661
lowerback 63.8725 -1.93662 3.31256
upperback 6.72696 -2.50368 -1.75008
thorax -14.2848 -1.8881 -1.98788
lowerneck 5.61083 -2.85945 -1.87452
upperneck -32.9683 -4.72791 3.78217
head -11.4872 -3.02988 2.39234
rclavicle -7.95139e-015 -4.17448e-015
rhumerus -198.108 160.519 -258.194
rradius 35.2768
rwrist 30.5432
rhand -28.7546 -33.7215
rfingers 7.12502
rthumb 177.885 116.309
lclavicle -7.95139e-015 -4.17448e-015
lhumerus -28.1295 -11.553 76.7715
lradius 46.0508
lwrist -11.8998
lhand -26.9291 6.08035
lfingers 7.12502
lthumb -0.351597 36.0598
rfemur -93.4715 -47.7653 26.2295
rtibia 143.775
rfoot -59.2942 6.98887
rtoes -15.1505
lfemur -87.9991 23.6074 -22.9989
ltibia 143.18
lfoot -46.3321 -28.8817
ltoes -13.8145
982
root -12.627 7.98578 -0.00209184 -177.883 -94.0343 181.268
lowerback 64.3893 -1.93964 3.31329
upperback 6.68927 -2.52138 -1.77683
thorax -14.3331 -1.90232 -2.00443
lowerneck 5.6698 -2.8963 -2.09159
upperneck -32.8438 -4.71359 4.07334
head -11.4326 -3.02734 2.53111
rclavicle 2.94201e-014 3.47873e-014
rhumerus -198.487 160.715 -258.019
rradius 35.7764
rwrist 30.6208
rhand -29.4729 -34.1984
rfingers 7.12502
rthumb 177.192 115.84
lclavicle 2.94201e-014 3.47873e-014
lhumerus -28.0856 -12.0011 76.8866
lradius 46.322
lwrist -11.8896
lhand -28.6773 5.41522
lfingers 7.12502
lthumb -2.04006 35.3852
rfemur -93.4361 -49.4744 25.9644
rtibia 144.191
rfoot -59.9594 7.3974
rtoes -15.4736
lfemur -87.366 24.0065 -23.1358
ltibia 143.522
lfoot -46.9568 -28.8807
ltoes -14.0725
983
root -12.6396 7.95146 -0.0078225 -177.145 -93.9952 180.23
lowerback 64.772 -2.02149 3.43163
upperback 6.6693 -2.54253 -1.76634
thorax -14.3553 -1.92245 -2.02727
lowerneck 5.68413 -2.87571 -2.26309
upperneck -32.8161 -4.62094 4.35646
head -11.4127 -2.99804 2.65444
rclavicle -1.19271e-015 1.59028e-015
rhumerus -198.762 160.82 -257.931
rradius 36.33
rwrist 30.7141
rhand -28.8823 -33.6941
rfingers 7.12502
rthumb 177.762 116.338
lclavicle -1.19271e-015 1.59028e-015
lhumerus -28.0069 -12.151 76.8169
lradius 46.5398
lwrist -11.8721
lhand -29.8581 4.76601
lfingers 7.12502
lthumb -3.18045 34.722
rfemur -93.2196 -50.6773 26.0517
rtibia 144.472
rfoot -60.5315 7.60671
rtoes -15.6281
lfemur -87.0964 24.5349 -22.9839
ltibia 143.823
lfoot -47.4814 -28.5638
ltoes -15.0276
984
root -12.6494 7.92606 -0.0148004 -173.476 -93.9979 176.413
lowerback 64.9931 -2.17941 3.55393
upperback 6.68343 -2.64623 -1.74752
thorax -14.3393 -1.97576 -2.00264
lowerneck 5.31516 -2.74035 -2.30019
upperneck -32.6157 -4.39902 4.42525
head -11.2642 -2.90228 2.64246
rclavicle -9.93923e-015 2.3059e-014
rhumerus -198.767 160.673 -257.944
rradius 36.7818
rwrist 30.7173
rhand -28.8331 -34.0442
rfingers 7.12502
rthumb 177.809 115.987
lclavicle -9.93923e-015 2.3059e-014
lhumerus -27.8974 -12.0109 76.5524
lradius 46.7048
lwrist -11.7901
lhand -30.2374 4.6234
lfingers 7.12502
lthumb -3.54673 34.5736
rfemur -92.9776 -51.2734 26.3956
rtibia 144.619
rfoot -60.8627 7.6416
rtoes -15.623
lfemur -87.0869 25.1928 -22.6611
ltibia 144.065
lfoot -47.5522 -28.9143
ltoes -14.5665
985
root -12.6588 7.91128 -0.0220192 -169.554 -93.987 172.431
lowerback 65.0957 -2.29077 3.74038
upperback 6.66164 -2.64805 -1.744
thorax -14.3633 -1.98507 -2.07438
lowerneck 4.97446 -2.68595 -2.23994
upperneck -32.3653 -4.30158 4.41125
head -11.1031 -2.86236 2.595
rclavicle 1.35174e-014 2.44505e-014
rhumerus -198.886 160.687 -257.982
rradius 37.1269
rwrist 30.5646
rhand -28.8879 -34.2253
rfingers 7.12502
rthumb 177.757 115.807
lclavicle 1.35174e-014 2.44505e-014
lhumerus -27.8644 -12.1516 76.3754
lradius 46.8562
lwrist -11.5663
lhand -30.338 4.76598
lfingers 7.12502
lthumb -3.6439 34.7146
rfemur -92.8756 -51.2081 26.7279
rtibia 144.713
rfoot -60.8138 7.63951
rtoes -14.9904
lfemur -87.1315 25.9109 -22.363
ltibia 144.255
lfoot -47.7337 -29.0475
ltoes -14.7759
986
root -12.6655 7.9038 -0.0315583 -164.221 -93.9353 167.048
lowerback 65.1983 -2.29585 3.93232
upperback 6.58132 -2.50911 -1.68997
thorax -14.4476 -1.93879 -2.15867
lowerneck 5.12781 -2.77037 -1.66005
upperneck -32.5362 -4.46354 4.02318
head -11.2243 -2.96464 2.38246
rclavicle 2.70347e-014 4.55217e-014
rhumerus -199.154 160.671 -257.988
rradius 37.4967
rwrist 30.2901
rhand -29.4292 -34.4462
rfingers 7.12502
rthumb 177.234 115.592
lclavicle 2.70347e-014 4.55217e-014
lhumerus -27.958 -12.3534 76.3098
lradius 46.9849
lwrist -11.4043
lhand -30.508 4.8156
lfingers 7.12502
lthumb -3.808 34.7613
rfemur -92.7608 -50.7601 27.1638
rtibia 144.767
rfoot -60.7316 7.39357
rtoes -14.5637
lfemur -87.2947 26.9209 -22.0307
ltibia 144.426
lfoot -48.1293 -28.5903
ltoes -16.6656
987
root -12.6717 7.90251 -0.0393573 -159.554 -93.8833 162.39
lowerback 65.2583 -2.27996 4.03154
upperback 6.47875 -2.40099 -1.62218
thorax -14.5607 -1.90154 -2.17262
lowerneck 4.99792 -2.72578 -1.66816
upperneck -32.4648 -4.3995 4.0188
head -11.1722 -2.93411 2.3687
rclavicle -3.97569e-015 1.94809e-014
rhumerus -199.408 160.547 -257.977
rradius 37.8447
rwrist 30.1439
rhand -29.9375 -34.575
rfingers 7.12502
rthumb 176.743 115.47
lclavicle -3.97569e-015 1.94809e-014
lhumerus -28.1245 -12.4495 76.2587
lradius 47.0006
lwrist -11.3813
lhand -30.5019 4.84709
lfingers 7.12502
lthumb -3.80215 34.7929
rfemur -92.6039 -50.4353 27.5418
rtibia 144.756
rfoot -60.7995 7.09285
rtoes -15.2569
lfemur -87.4515 27.6152 -21.7124
ltibia 144.531
lfoot -48.2227 -28.3479
ltoes -17.6015
988
root -12.6784 7.9089 -0.0442505 -156.768 -93.8737 159.706
lowerback 65.1759 -2.35541 4.16992
upperback 6.40011 -2.38407 -1.64183
thorax -14.6559 -1.89519 -2.26208
lowerneck 5.08878 -2.70602 -1.62967
upperneck -32.6476 -4.37444 4.02925
head -11.2644 -2.93287 2.37466
rclavicle 3.97569e-016 2.28602e-014
rhumerus -199.634 160.801 -258.053
rradius 38.0332
rwrist 30.3325
rhand -29.8181 -34.2714
rfingers 7.12502
rthumb 176.858 115.772
lclavicle 3.97569e-016 2.28602e-014
lhumerus -28.2585 -12.6595 76.1444
lradius 46.8794
lwrist -11.5065
lhand -30.4041 4.76175
lfingers 7.12502
lthumb -3.70767 34.7092
rfemur -92.5276 -50.1226 27.7626
rtibia 144.69
rfoot -60.7728 6.96223
rtoes -15.7783
lfemur -87.5787 27.7338 -21.4694
ltibia 144.556
lfoot -48.0663 -28.4853
ltoes -17.4508
989
root -12.6817 7.92052 -0.050036 -154.581 -93.8365 157.605
lowerback 65.0966 -2.3807 4.20854
upperback 6.32208 -2.37366 -1.63503
thorax -14.7501 -1.88998 -2.27536
lowerneck 4.76291 -2.52957 -1.88631
upperneck -32.4096 -4.12309 4.08969
head -11.1052 -2.78942 2.39491
rclavicle -3.4191e-014 -4.19436e-014
rhumerus -199.852 160.929 -258.135
rradius 38.1767
rwrist 30.2934
rhand -29.4521 -33.9534
rfingers 7.12502
rthumb 177.212 116.085
lclavicle -3.4191e-014 -4.19436e-014
lhumerus -28.4151 -12.7426 76.0103
lradius 46.7212
lwrist -11.6622
lhand -30.2661 4.44977
lfingers 7.12502
lthumb -3.57445 34.3995
rfemur -92.506 -49.499 27.8963
rtibia 144.609
rfoot -60.5467 6.87935
rtoes -15.2777
lfemur -87.7381 27.891 -21.3272
ltibia 144.545
lfoot -48.0502 -28.4007
ltoes -18.1918
990
root -12.6827 7.93407 -0.0542037 -151.398 -93.8168 154.488
lowerback 65.0063 -2.41051 4.22554
upperback 6.28031 -2.38665 -1.60795
thorax -14.8004 -1.89626 -2.24446
lowerneck 4.80555 -2.4797 -1.77807
upperneck -32.5718 -4.0979 3.92841
head -11.1867 -2.77716 2.32359
rclavicle 1.94809e-014 1.23246e-014
rhumerus -199.968 160.841 -258.233
rradius 38.2947
rwrist 30.1542
rhand -29.2887 -34.0139
rfingers 7.12502
rthumb 177.369 116.023
lclavicle 1.94809e-014 1.23246e-014
lhumerus -28.5649 -12.6719 75.8419
lradius 46.5882
lwrist -11.6784
lhand -30.0375 4.65849
lfingers 7.12502
lthumb -3.35371 34.6119
rfemur -92.3714 -48.7822 28.052
rtibia 144.502
rfoot -60.3328 6.68496
rtoes -14.8505
lfemur -87.8427 28.1577 -21.1155
ltibia 144.513
lfoot -47.9665 -28.4493
ltoes -18.5975
991
root -12.6844 7.94823 -0.057199 -148.539 -93.8068 151.747
lowerback 64.84 -2.44173 4.26133
upperback 6.27785 -2.39787 -1.60412
thorax -14.8043 -1.90077 -2.25121
lowerneck 4.70468 -2.43093 -1.79015
upperneck -32.6521 -4.04058 3.93012
head -11.2001 -2.75534 2.32186
rclavicle 3.53837e-014 3.1408e-014
rhumerus -199.946 161.116 -258.306
rradius 38.2909
rwrist 30.4061
rhand -29.7707 -34.3551
rfingers 7.12502
rthumb 176.904 115.688
lclavicle 3.53837e-014 3.1408e-014
lhumerus -28.6526 -12.7061 75.6821
lradius 46.4998
lwrist -11.4734
lhand -29.7209 5.38385
lfingers 7.12502
lthumb -3.04793 35.3418
rfemur -92.2901 -48.2958 28.2674
rtibia 144.379
rfoot -60.2425 6.52884
rtoes -15.0885
lfemur -87.9026 28.262 -20.9027
ltibia 144.448
lfoot -47.7684 -28.6735
ltoes -18.1932
